<?xml version="1.0"?>
<svg width="425" height="229.4359130859375" xmlns="http://www.w3.org/2000/svg" xmlns:svg="http://www.w3.org/2000/svg">

 <g>
  <title>Layer 1</title>
  <g stroke="null" id="svg_1">
   <g stroke="null" id="svg_2" clip-path="url(#cp1)">
    <clipPath transform="translate(425,229.4359130859375) scale(1.019498586654663,1.0088331699371338) translate(-425,-229.4359130859375) " stroke="null" id="cp1">
     <polygon stroke="null" id="svg_3" points="75,5 75,222 425,222 425,5 "/>
    </clipPath>
    <polyline stroke="rgb(24.7181%,23.9994%,60%)" id="svg_4" points="75.99606590231087,10.149364483479758 76.1007676729023,10.466945430145415 76.20547722165065,10.784122295531915 76.41488076283349,11.417064628122716 76.83358672915892,12.67689577090323 77.67120867204721,15.17355621069737 79.34624254758637,20.075677869776428 82.69641919286187,29.525216716893738 89.96044773881658,48.48431779885232 96.74286836325882,64.45041193645193 103.39305254153624,78.63249492335854 110.60600970901214,92.5279572863692 117.3377556409796,104.23274494773614 124.6332935007049,115.67694251637113 131.79526484942835,125.7793978185473 138.4760327408003,134.29091970199806 145.72059255993008,142.62489211978027 152.48394892170836,149.64234463970934 159.11375432879868,155.8779422167936 166.30834726773537,161.99146876364102 173.02072558891814,167.14055720375472 180.29689583785876,172.17765740364484 187.43949957579753,176.62559940173742 194.10089985638479,180.37341093359646 201.3260920647299,184.04456247420967 208.0700652594096,187.1366386030386 215.37681922144475,190.1591049968447 222.55204454959676,192.82645706574112 229.24505525999484,195.07413416649797 236.50083118143448,197.2733830880461 243.27641480592501,199.1266152860553 249.9184474757276,200.7720188612111 257.1242565169741,202.3841415325369 263.84887765718304,203.7430399355908 271.1362640084335,205.07167457503238 278.29107945277065,206.2439413046195 284.96473810869793,207.2325935009576 292.2021575797553,208.20006414148156 298.95835803714726,209.01519998815638 305.58102309616515,209.73954454399427 312.7674800829409,210.448757218026 319.47169133933494,211.0469822340492 326.74072124020313,211.63210731984145 333.5275365233174,212.12542513900917 340.18178089951834,212.56326452274516 347.3998483161049,212.99202169868295 354.1356700023098,213.35318569760057 361.4363103329888,213.70626807093504 368.60338415266597,214.0180033084289 375.2882433545892,214.28029439092643 382.53789008835884,214.5375517752036 389.30532220437453,214.75444721228268 395.9402145261047,214.94714395332994 403.1388987755927,215.13477620901176 409.855337294699,215.29417665265646 409.97260078875115,215.2972091864467 410.08983317017555,215.29922574444936 410.3243290456521,215.30425944266972 410.7932896839775,215.31535820847057 411.7302153565397,215.33553918206962 413.60506230575265,215.3758857356952 413.72229468717705,215.37891826948544 413.8385314645129,215.3809348274881 414.0730273399895,215.385983919281 414.54198797831486,215.39606670929425 415.4789136508771,215.4152317071057 415.5961460323015,215.41826424089595 415.7133784137259,215.4202807988986 415.94787428920245,215.4253298906915 416.4168349275278,215.4344120984897 416.53409842158,215.4374292387074 416.6503040862881,215.43944579671006 416.88479996176466,215.44449488850296 417.00203234318906,215.4465114465056 417.11926472461346,215.44954398029586 417.2365282186656,215.4515605382985 417.35376060009,215.45357709630116 " stroke-width="2px" fill="none"/>
    <polyline stroke="rgb(60%,23.9994%,44.2893%)" id="svg_5" points="75.99606590231087,8.082568594747954 76.1007676729023,8.085796434489794 76.20547722165065,8.088924216010128 76.41488076283349,8.095379895493807 76.83358672915892,8.108091138018153 77.67120867204721,8.133715663706425 79.34624254758637,8.184762674443391 82.69641919286187,8.286957716237112 89.96044773881658,8.508296123190348 96.74286836325882,8.71470276478044 103.39305254153624,8.916873287627368 110.60600970901214,9.135992133840091 117.3377556409796,9.340280235009459 124.6332935007049,9.561517621642906 131.79526484942835,9.778416907115115 138.4760327408003,9.980486409642253 145.72059255993008,10.199503273436903 152.48394892170836,10.403691316384766 159.11375432879868,10.60364227849118 166.30834726773537,10.82033952332381 173.02072558891814,11.022409025850948 180.29689583785876,11.241224811104303 187.43949957579753,11.455803515516209 194.10089985638479,11.655653457302833 201.3260920647299,11.872249681815674 208.0700652594096,12.074218164023023 215.37681922144475,12.292832870735083 222.55204454959676,12.50720953450741 229.24505525999484,12.707059476294035 236.50083118143448,12.923453660167297 243.27641480592501,13.12532208415314 249.9184474757276,13.323052523420756 257.1242565169741,13.537329128971578 263.84887765718304,13.737078050438413 271.1362640084335,13.95327115577038 278.29107945277065,14.165327238482405 284.96473810869793,14.362957619528515 292.2021575797553,14.577134166857832 298.95835803714726,14.776681047685088 305.58102309616515,14.97229294653198 312.7674800829409,15.184248971022498 319.47169133933494,15.381779293847103 326.74072124020313,15.595651818118768 333.5275365233174,15.795198698946024 340.18178089951834,15.99071053957141 347.3998483161049,16.20246452342235 354.1356700023098,16.399994846246955 361.4363103329888,16.613765388100546 368.60338415266597,16.823400831530762 375.2882433545892,17.018812613934642 382.53789008835884,17.23046461536751 389.30532220437453,17.427792897552536 395.9402145261047,17.62108613953569 403.1388987755927,17.830619600547834 409.855337294699,18.02593132473021 409.97260078875115,18.029360243013343 410.08983317017555,18.032689103074972 410.3243290456521,18.03954886383781 410.7932896839775,18.053168327141975 411.7302153565397,18.08040725375031 413.60506230575265,18.134885106966976 413.72229468717705,18.138213967028605 413.8385314645129,18.14164288531174 414.0730273399895,18.148504570271143 414.54198797831486,18.162022051157237 415.4789136508771,18.18926097776557 415.5961460323015,18.192689896048705 415.7133784137259,18.196120738528407 415.94787428920245,18.202880441069738 416.4168349275278,18.216499904373904 416.53409842158,18.21992882265704 416.6503040862881,18.223257682718668 416.88479996176466,18.230117443481504 417.00203234318906,18.233548285961206 417.11926472461346,18.236877146022834 417.2365282186656,18.240307988502536 417.35376060009,18.24373690678567 " stroke-width="2px" fill="none"/>
    <polyline stroke="rgb(60%,54.7021%,23.9994%)" id="svg_6" points="75.99606590231087,8.061887330041372 76.1007676729023,8.061887330041372 76.20547722165065,8.061988350361162 76.41488076283349,8.061988350361162 76.83358672915892,8.062189428902457 77.67120867204721,8.062391469542035 79.34624254758637,8.062895609042698 82.69641919286187,8.063904850142308 89.96044773881658,8.066124410882821 96.74286836325882,8.068242951303546 103.39305254153624,8.070260471404481 110.60600970901214,8.072480032144995 117.3377556409796,8.07449755224593 124.6332935007049,8.076717112986444 131.79526484942835,8.078936673726957 138.4760327408003,8.080954193827893 145.72059255993008,8.083173754568406 152.48394892170836,8.085191274669342 159.11375432879868,8.087208794770277 166.30834726773537,8.08942835551079 173.02072558891814,8.091546895931515 180.29689583785876,8.093766456672029 187.43949957579753,8.095884997092753 194.10089985638479,8.097902517193688 201.3260920647299,8.100122077934202 208.0700652594096,8.102240618354926 215.37681922144475,8.10446017909544 222.55204454959676,8.106578719516165 229.24505525999484,8.10869725993689 236.50083118143448,8.110916820677403 243.27641480592501,8.112934340778338 249.9184474757276,8.114951860879273 257.1242565169741,8.117171421619787 263.84887765718304,8.119188941720722 271.1362640084335,8.121408502461236 278.29107945277065,8.12362806320175 284.96473810869793,8.125645583302685 292.2021575797553,8.127865144043199 298.95835803714726,8.129882664144134 305.58102309616515,8.131900184245069 312.7674800829409,8.134119744985583 319.47169133933494,8.136137265086518 326.74072124020313,8.138356825827032 333.5275365233174,8.140475366247756 340.18178089951834,8.142492886348691 347.3998483161049,8.144712447089205 354.1356700023098,8.14672996719014 361.4363103329888,8.148949527930654 368.60338415266597,8.151169088671168 375.2882433545892,8.153186608772103 382.53789008835884,8.155406169512617 389.30532220437453,8.157524709933341 395.9402145261047,8.159542230034276 403.1388987755927,8.161660770455 409.855337294699,8.163779310875725 409.97260078875115,8.163779310875725 410.08983317017555,8.163779310875725 410.3243290456521,8.163880331195514 410.7932896839775,8.16408140973681 411.7302153565397,8.164283450376388 413.60506230575265,8.16488861019684 413.72229468717705,8.16488861019684 413.8385314645129,8.16498963051663 414.0730273399895,8.165090650836419 414.54198797831486,8.165191671156208 415.4789136508771,8.165493770017292 415.5961460323015,8.165493770017292 415.7133784137259,8.165493770017292 415.94787428920245,8.165594790337082 416.4168349275278,8.16579683097666 416.53409842158,8.16579683097666 416.6503040862881,8.16579683097666 416.88479996176466,8.16589785129645 417.00203234318906,8.16589785129645 417.11926472461346,8.165998871616239 417.2365282186656,8.165998871616239 417.35376060009,8.165998871616239 " stroke-width="2px" fill="none"/>
   </g>
   <g stroke="null" id="svg_7" clip-path="url(#cp2)">
    <clipPath transform="translate(425,229.4359130859375) scale(1.019498586654663,1.0088331699371338) translate(-425,-229.4359130859375) " stroke="null" id="cp2">
     <polygon stroke="null" id="svg_8" points="66,5 66,231 426,231 426,5 "/>
    </clipPath>
    <polyline stroke="rgb(0%,0%,0%)" id="svg_9" points="75.31198477745056,216.82559082315856 75.31198477745056,212.79025814341003 " stroke-width="0.2px" fill="none"/>
   </g>
   <g stroke="null" id="svg_10" clip-path="url(#cp3)">
    <clipPath transform="translate(425,229.4359130859375) scale(1.019498586654663,1.0088331699371338) translate(-425,-229.4359130859375) " stroke="null" id="cp3">
     <polygon stroke="null" id="svg_11" points="66,5 66,231 426,231 426,5 "/>
    </clipPath>
    <polyline stroke="rgb(0%,0%,0%)" id="svg_12" points="88.99365394359847,216.82559082315856 88.99365394359847,214.40438197916592 " stroke-width="0.2px" fill="none"/>
   </g>
   <g stroke="null" id="svg_13" clip-path="url(#cp4)">
    <clipPath transform="translate(425,229.4359130859375) scale(1.019498586654663,1.0088331699371338) translate(-425,-229.4359130859375) " stroke="null" id="cp4">
     <polygon stroke="null" id="svg_14" points="66,5 66,231 426,231 426,5 "/>
    </clipPath>
    <polyline stroke="rgb(0%,0%,0%)" id="svg_15" points="102.67532310974639,216.82559082315856 102.67532310974639,214.40438197916592 " stroke-width="0.2px" fill="none"/>
   </g>
   <g stroke="null" id="svg_16" clip-path="url(#cp5)">
    <clipPath transform="translate(425,229.4359130859375) scale(1.019498586654663,1.0088331699371338) translate(-425,-229.4359130859375) " stroke="null" id="cp5">
     <polygon stroke="null" id="svg_17" points="66,5 66,231 426,231 426,5 "/>
    </clipPath>
    <polyline stroke="rgb(0%,0%,0%)" id="svg_18" points="116.35700005405124,216.82559082315856 116.35700005405124,214.40438197916592 " stroke-width="0.2px" fill="none"/>
   </g>
   <g stroke="null" id="svg_19" clip-path="url(#cp6)">
    <clipPath transform="translate(425,229.4359130859375) scale(1.019498586654663,1.0088331699371338) translate(-425,-229.4359130859375) " stroke="null" id="cp6">
     <polygon stroke="null" id="svg_20" points="66,5 66,231 426,231 426,5 "/>
    </clipPath>
    <polyline stroke="rgb(0%,0%,0%)" id="svg_21" points="130.0386614420422,216.82559082315856 130.0386614420422,214.40438197916592 " stroke-width="0.2px" fill="none"/>
   </g>
   <g stroke="null" id="svg_22" clip-path="url(#cp7)">
    <clipPath transform="translate(425,229.4359130859375) scale(1.019498586654663,1.0088331699371338) translate(-425,-229.4359130859375) " stroke="null" id="cp7">
     <polygon stroke="null" id="svg_23" points="66,5 66,231 426,231 426,5 "/>
    </clipPath>
    <polyline stroke="rgb(0%,0%,0%)" id="svg_24" points="143.720346164504,216.82559082315856 143.720346164504,212.79025814341003 " stroke-width="0.2px" fill="none"/>
   </g>
   <g stroke="null" id="svg_25" clip-path="url(#cp8)" transform="matrix(1.019498586654663,0,0,1.0088331699371338,136.0741005420685,219.85199384950545) ">
    <clipPath stroke="null" id="cp8">
     <polygon stroke="null" id="svg_26" points="-1.6,-1.93591 -1.6,11.0641 16.4,11.0641 16.4,-1.93591 "/>
    </clipPath>
    <text stroke="null" id="svg_27" fill="rgb(0%,0%,0%)" font-size="10px" font-family="Times" y="7" x="0">100</text>
   </g>
   <g stroke="null" id="svg_28" clip-path="url(#cp9)">
    <clipPath transform="translate(425,229.4359130859375) scale(1.019498586654663,1.0088331699371338) translate(-425,-229.4359130859375) " stroke="null" id="cp9">
     <polygon stroke="null" id="svg_29" points="66,5 66,231 426,231 426,5 "/>
    </clipPath>
    <polyline stroke="rgb(0%,0%,0%)" id="svg_30" points="157.40201533065192,216.82559082315856 157.40201533065192,214.40438197916592 " stroke-width="0.2px" fill="none"/>
   </g>
   <g stroke="null" id="svg_31" clip-path="url(#cp10)">
    <clipPath transform="translate(425,229.4359130859375) scale(1.019498586654663,1.0088331699371338) translate(-425,-229.4359130859375) " stroke="null" id="cp10">
     <polygon stroke="null" id="svg_32" points="66,5 66,231 426,231 426,5 "/>
    </clipPath>
    <polyline stroke="rgb(0%,0%,0%)" id="svg_33" points="171.08368449679983,216.82559082315856 171.08368449679983,214.40438197916592 " stroke-width="0.2px" fill="none"/>
   </g>
   <g stroke="null" id="svg_34" clip-path="url(#cp11)">
    <clipPath transform="translate(425,229.4359130859375) scale(1.019498586654663,1.0088331699371338) translate(-425,-229.4359130859375) " stroke="null" id="cp11">
     <polygon stroke="null" id="svg_35" points="66,5 66,231 426,231 426,5 "/>
    </clipPath>
    <polyline stroke="rgb(0%,0%,0%)" id="svg_36" points="184.76535366294775,216.82559082315856 184.76535366294775,214.40438197916592 " stroke-width="0.2px" fill="none"/>
   </g>
   <g stroke="null" id="svg_37" clip-path="url(#cp12)">
    <clipPath transform="translate(425,229.4359130859375) scale(1.019498586654663,1.0088331699371338) translate(-425,-229.4359130859375) " stroke="null" id="cp12">
     <polygon stroke="null" id="svg_38" points="66,5 66,231 426,231 426,5 "/>
    </clipPath>
    <polyline stroke="rgb(0%,0%,0%)" id="svg_39" points="198.44702282909566,216.82559082315856 198.44702282909566,214.40438197916592 " stroke-width="0.2px" fill="none"/>
   </g>
   <g stroke="null" id="svg_40" clip-path="url(#cp13)">
    <clipPath transform="translate(425,229.4359130859375) scale(1.019498586654663,1.0088331699371338) translate(-425,-229.4359130859375) " stroke="null" id="cp13">
     <polygon stroke="null" id="svg_41" points="66,5 66,231 426,231 426,5 "/>
    </clipPath>
    <polyline stroke="rgb(0%,0%,0%)" id="svg_42" points="212.12869199524357,216.82559082315856 212.12869199524357,212.79025814341003 " stroke-width="0.2px" fill="none"/>
   </g>
   <g stroke="null" id="svg_43" clip-path="url(#cp14)" transform="matrix(1.019498586654663,0,0,1.0088331699371338,204.48245570659637,219.85199384950545) ">
    <clipPath stroke="null" id="cp14">
     <polygon stroke="null" id="svg_44" points="-1.7,-1.93591 -1.7,11.0641 16.3,11.0641 16.3,-1.93591 "/>
    </clipPath>
    <text stroke="null" id="svg_45" fill="rgb(0%,0%,0%)" font-size="10px" font-family="Times" y="7" x="0">200</text>
   </g>
   <g stroke="null" id="svg_46" clip-path="url(#cp15)">
    <clipPath transform="translate(425,229.4359130859375) scale(1.019498586654663,1.0088331699371338) translate(-425,-229.4359130859375) " stroke="null" id="cp15">
     <polygon stroke="null" id="svg_47" points="66,5 66,231 426,231 426,5 "/>
    </clipPath>
    <polyline stroke="rgb(0%,0%,0%)" id="svg_48" points="225.81036116139148,216.82559082315856 225.81036116139148,214.40438197916592 " stroke-width="0.2px" fill="none"/>
   </g>
   <g stroke="null" id="svg_49" clip-path="url(#cp16)">
    <clipPath transform="translate(425,229.4359130859375) scale(1.019498586654663,1.0088331699371338) translate(-425,-229.4359130859375) " stroke="null" id="cp16">
     <polygon stroke="null" id="svg_50" points="66,5 66,231 426,231 426,5 "/>
    </clipPath>
    <polyline stroke="rgb(0%,0%,0%)" id="svg_51" points="239.4920303275394,216.82559082315856 239.4920303275394,214.40438197916592 " stroke-width="0.2px" fill="none"/>
   </g>
   <g stroke="null" id="svg_52" clip-path="url(#cp17)">
    <clipPath transform="translate(425,229.4359130859375) scale(1.019498586654663,1.0088331699371338) translate(-425,-229.4359130859375) " stroke="null" id="cp17">
     <polygon stroke="null" id="svg_53" points="66,5 66,231 426,231 426,5 "/>
    </clipPath>
    <polyline stroke="rgb(0%,0%,0%)" id="svg_54" points="253.1736994936873,216.82559082315856 253.1736994936873,214.40438197916592 " stroke-width="0.2px" fill="none"/>
   </g>
   <g stroke="null" id="svg_55" clip-path="url(#cp18)">
    <clipPath transform="translate(425,229.4359130859375) scale(1.019498586654663,1.0088331699371338) translate(-425,-229.4359130859375) " stroke="null" id="cp18">
     <polygon stroke="null" id="svg_56" points="66,5 66,231 426,231 426,5 "/>
    </clipPath>
    <polyline stroke="rgb(0%,0%,0%)" id="svg_57" points="266.8553842161491,216.82559082315856 266.8553842161491,214.40438197916592 " stroke-width="0.2px" fill="none"/>
   </g>
   <g stroke="null" id="svg_58" clip-path="url(#cp19)">
    <clipPath transform="translate(425,229.4359130859375) scale(1.019498586654663,1.0088331699371338) translate(-425,-229.4359130859375) " stroke="null" id="cp19">
     <polygon stroke="null" id="svg_59" points="66,5 66,231 426,231 426,5 "/>
    </clipPath>
    <polyline stroke="rgb(0%,0%,0%)" id="svg_60" points="280.53703782598313,216.82559082315856 280.53703782598313,212.79025814341003 " stroke-width="0.2px" fill="none"/>
   </g>
   <g stroke="null" id="svg_61" clip-path="url(#cp20)" transform="matrix(1.019498586654663,0,0,1.0088331699371338,272.89081087112424,219.85199384950545) ">
    <clipPath stroke="null" id="cp20">
     <polygon stroke="null" id="svg_62" points="-1.8,-1.93591 -1.8,11.0641 16.2,11.0641 16.2,-1.93591 "/>
    </clipPath>
    <text stroke="null" id="svg_63" fill="rgb(0%,0%,0%)" font-size="10px" font-family="Times" y="7" x="0">300</text>
   </g>
   <g stroke="null" id="svg_64" clip-path="url(#cp21)">
    <clipPath transform="translate(425,229.4359130859375) scale(1.019498586654663,1.0088331699371338) translate(-425,-229.4359130859375) " stroke="null" id="cp21">
     <polygon stroke="null" id="svg_65" points="66,5 66,231 426,231 426,5 "/>
    </clipPath>
    <polyline stroke="rgb(0%,0%,0%)" id="svg_66" points="294.21872254844493,216.82559082315856 294.21872254844493,214.40438197916592 " stroke-width="0.2px" fill="none"/>
   </g>
   <g stroke="null" id="svg_67" clip-path="url(#cp22)">
    <clipPath transform="translate(425,229.4359130859375) scale(1.019498586654663,1.0088331699371338) translate(-425,-229.4359130859375) " stroke="null" id="cp22">
     <polygon stroke="null" id="svg_68" points="66,5 66,231 426,231 426,5 "/>
    </clipPath>
    <polyline stroke="rgb(0%,0%,0%)" id="svg_69" points="307.9004072709067,216.82559082315856 307.9004072709067,214.40438197916592 " stroke-width="0.2px" fill="none"/>
   </g>
   <g stroke="null" id="svg_70" clip-path="url(#cp23)">
    <clipPath transform="translate(425,229.4359130859375) scale(1.019498586654663,1.0088331699371338) translate(-425,-229.4359130859375) " stroke="null" id="cp23">
     <polygon stroke="null" id="svg_71" points="66,5 66,231 426,231 426,5 "/>
    </clipPath>
    <polyline stroke="rgb(0%,0%,0%)" id="svg_72" points="321.58206088074076,216.82559082315856 321.58206088074076,214.40438197916592 " stroke-width="0.2px" fill="none"/>
   </g>
   <g stroke="null" id="svg_73" clip-path="url(#cp24)">
    <clipPath transform="translate(425,229.4359130859375) scale(1.019498586654663,1.0088331699371338) translate(-425,-229.4359130859375) " stroke="null" id="cp24">
     <polygon stroke="null" id="svg_74" points="66,5 66,231 426,231 426,5 "/>
    </clipPath>
    <polyline stroke="rgb(0%,0%,0%)" id="svg_75" points="335.26374560320255,216.82559082315856 335.26374560320255,214.40438197916592 " stroke-width="0.2px" fill="none"/>
   </g>
   <g stroke="null" id="svg_76" clip-path="url(#cp25)">
    <clipPath transform="translate(425,229.4359130859375) scale(1.019498586654663,1.0088331699371338) translate(-425,-229.4359130859375) " stroke="null" id="cp25">
     <polygon stroke="null" id="svg_77" points="66,5 66,231 426,231 426,5 "/>
    </clipPath>
    <polyline stroke="rgb(0%,0%,0%)" id="svg_78" points="348.9453992130366,216.82559082315856 348.9453992130366,212.79025814341003 " stroke-width="0.2px" fill="none"/>
   </g>
   <g stroke="null" id="svg_79" clip-path="url(#cp26)" transform="matrix(1.019498586654663,0,0,1.0088331699371338,341.29916603565215,219.85199384950545) ">
    <clipPath stroke="null" id="cp26">
     <polygon stroke="null" id="svg_80" points="-1.9,-1.93591 -1.9,11.0641 16.1,11.0641 16.1,-1.93591 "/>
    </clipPath>
    <text stroke="null" id="svg_81" fill="rgb(0%,0%,0%)" font-size="10px" font-family="Times" y="7" x="0">400</text>
   </g>
   <g stroke="null" id="svg_82" clip-path="url(#cp27)">
    <clipPath transform="translate(425,229.4359130859375) scale(1.019498586654663,1.0088331699371338) translate(-425,-229.4359130859375) " stroke="null" id="cp27">
     <polygon stroke="null" id="svg_83" points="66,5 66,231 426,231 426,5 "/>
    </clipPath>
    <polyline stroke="rgb(0%,0%,0%)" id="svg_84" points="362.6270839354984,216.82559082315856 362.6270839354984,214.40438197916592 " stroke-width="0.2px" fill="none"/>
   </g>
   <g stroke="null" id="svg_85" clip-path="url(#cp28)">
    <clipPath transform="translate(425,229.4359130859375) scale(1.019498586654663,1.0088331699371338) translate(-425,-229.4359130859375) " stroke="null" id="cp28">
     <polygon stroke="null" id="svg_86" points="66,5 66,231 426,231 426,5 "/>
    </clipPath>
    <polyline stroke="rgb(0%,0%,0%)" id="svg_87" points="376.3087375453324,216.82559082315856 376.3087375453324,214.40438197916592 " stroke-width="0.2px" fill="none"/>
   </g>
   <g stroke="null" id="svg_88" clip-path="url(#cp29)">
    <clipPath transform="translate(425,229.4359130859375) scale(1.019498586654663,1.0088331699371338) translate(-425,-229.4359130859375) " stroke="null" id="cp29">
     <polygon stroke="null" id="svg_89" points="66,5 66,231 426,231 426,5 "/>
    </clipPath>
    <polyline stroke="rgb(0%,0%,0%)" id="svg_90" points="389.9904222677942,216.82559082315856 389.9904222677942,214.40438197916592 " stroke-width="0.2px" fill="none"/>
   </g>
   <g stroke="null" id="svg_91" clip-path="url(#cp30)">
    <clipPath transform="translate(425,229.4359130859375) scale(1.019498586654663,1.0088331699371338) translate(-425,-229.4359130859375) " stroke="null" id="cp30">
     <polygon stroke="null" id="svg_92" points="66,5 66,231 426,231 426,5 "/>
    </clipPath>
    <polyline stroke="rgb(0%,0%,0%)" id="svg_93" points="403.67207587762823,216.82559082315856 403.67207587762823,214.40438197916592 " stroke-width="0.2px" fill="none"/>
   </g>
   <g stroke="null" id="svg_94" clip-path="url(#cp31)">
    <clipPath transform="translate(425,229.4359130859375) scale(1.019498586654663,1.0088331699371338) translate(-425,-229.4359130859375) " stroke="null" id="cp31">
     <polygon stroke="null" id="svg_95" points="66,5 66,231 426,231 426,5 "/>
    </clipPath>
    <polyline stroke="rgb(0%,0%,0%)" id="svg_96" points="417.35376060009,216.82559082315856 417.35376060009,212.79025814341003 " stroke-width="0.2px" fill="none"/>
   </g>
   <g stroke="null" id="svg_97" clip-path="url(#cp32)" transform="matrix(1.019498586654663,0,0,1.0088331699371338,409.70752120018005,219.85199384950545) ">
    <clipPath stroke="null" id="cp32">
     <polygon stroke="null" id="svg_98" points="-1,-1.93591 -1,11.0641 16,11.0641 16,-1.93591 "/>
    </clipPath>
    <text stroke="null" id="svg_99" fill="rgb(0%,0%,0%)" font-size="10px" font-family="Times" y="7" x="0">500</text>
   </g>
   <g stroke="null" id="svg_100" clip-path="url(#cp33)">
    <clipPath transform="translate(425,229.4359130859375) scale(1.019498586654663,1.0088331699371338) translate(-425,-229.4359130859375) " stroke="null" id="cp33">
     <polygon stroke="null" id="svg_101" points="66,5 66,231 426,231 426,5 "/>
    </clipPath>
    <polyline stroke="rgb(0%,0%,0%)" id="svg_102" points="68.8844503416276,216.82559082315856 424.46579618124815,216.82559082315856 " stroke-width="0.2px" fill="none"/>
   </g>
   <g stroke="null" id="svg_103" clip-path="url(#cp34)">
    <clipPath transform="translate(425,229.4359130859375) scale(1.019498586654663,1.0088331699371338) translate(-425,-229.4359130859375) " stroke="null" id="cp34">
     <polygon stroke="null" id="svg_104" points="66,5 66,231 426,231 426,5 "/>
    </clipPath>
    <polyline stroke="rgb(0%,0%,0%)" id="svg_105" points="75.31198477745056,216.82559082315856 79.38997912406921,216.82559082315856 " stroke-width="0.2px" fill="none"/>
   </g>
   <g stroke="null" id="svg_106" clip-path="url(#cp35)">
    <clipPath transform="translate(425,229.4359130859375) scale(1.019498586654663,1.0088331699371338) translate(-425,-229.4359130859375) " stroke="null" id="cp35">
     <polygon stroke="null" id="svg_107" points="66,5 66,231 426,231 426,5 "/>
    </clipPath>
    <polyline stroke="rgb(0%,0%,0%)" id="svg_108" points="75.31198477745056,206.38719389067046 77.75878294105314,206.38719389067046 " stroke-width="0.2px" fill="none"/>
   </g>
   <g stroke="null" id="svg_109" clip-path="url(#cp36)">
    <clipPath transform="translate(425,229.4359130859375) scale(1.019498586654663,1.0088331699371338) translate(-425,-229.4359130859375) " stroke="null" id="cp36">
     <polygon stroke="null" id="svg_110" points="66,5 66,231 426,231 426,5 "/>
    </clipPath>
    <polyline stroke="rgb(0%,0%,0%)" id="svg_111" points="75.31198477745056,195.94879695818236 77.75878294105314,195.94879695818236 " stroke-width="0.2px" fill="none"/>
   </g>
   <g stroke="null" id="svg_112" clip-path="url(#cp37)">
    <clipPath transform="translate(425,229.4359130859375) scale(1.019498586654663,1.0088331699371338) translate(-425,-229.4359130859375) " stroke="null" id="cp37">
     <polygon stroke="null" id="svg_113" points="66,5 66,231 426,231 426,5 "/>
    </clipPath>
    <polyline stroke="rgb(0%,0%,0%)" id="svg_114" points="75.31198477745056,185.5114006079093 77.75878294105314,185.5114006079093 " stroke-width="0.2px" fill="none"/>
   </g>
   <g stroke="null" id="svg_115" clip-path="url(#cp38)">
    <clipPath transform="translate(425,229.4359130859375) scale(1.019498586654663,1.0088331699371338) translate(-425,-229.4359130859375) " stroke="null" id="cp38">
     <polygon stroke="null" id="svg_116" points="66,5 66,231 426,231 426,5 "/>
    </clipPath>
    <polyline stroke="rgb(0%,0%,0%)" id="svg_117" points="75.31198477745056,175.0730036754212 79.38997912406921,175.0730036754212 " stroke-width="0.2px" fill="none"/>
   </g>
   <g stroke="null" id="svg_118" clip-path="url(#cp39)" transform="matrix(1.019498586654663,0,0,1.0088331699371338,59.00000739097595,170.0285664781833) ">
    <clipPath stroke="null" id="cp39">
     <polygon stroke="null" id="svg_119" points="0,-1.54873 0,11.4513 14,11.4513 14,-1.54873 "/>
    </clipPath>
    <text stroke="null" id="svg_120" fill="rgb(0%,0%,0%)" font-size="10px" font-family="Times" y="7" x="0">0.2</text>
   </g>
   <g stroke="null" id="svg_121" clip-path="url(#cp40)">
    <clipPath transform="translate(425,229.4359130859375) scale(1.019498586654663,1.0088331699371338) translate(-425,-229.4359130859375) " stroke="null" id="cp40">
     <polygon stroke="null" id="svg_122" points="66,5 66,231 426,231 426,5 "/>
    </clipPath>
    <polyline stroke="rgb(0%,0%,0%)" id="svg_123" points="75.31198477745056,164.6346067429331 77.75878294105314,164.6346067429331 " stroke-width="0.2px" fill="none"/>
   </g>
   <g stroke="null" id="svg_124" clip-path="url(#cp41)">
    <clipPath transform="translate(425,229.4359130859375) scale(1.019498586654663,1.0088331699371338) translate(-425,-229.4359130859375) " stroke="null" id="cp41">
     <polygon stroke="null" id="svg_125" points="66,5 66,231 426,231 426,5 "/>
    </clipPath>
    <polyline stroke="rgb(0%,0%,0%)" id="svg_126" points="75.31198477745056,154.196209810445 77.75878294105314,154.196209810445 " stroke-width="0.2px" fill="none"/>
   </g>
   <g stroke="null" id="svg_127" clip-path="url(#cp42)">
    <clipPath transform="translate(425,229.4359130859375) scale(1.019498586654663,1.0088331699371338) translate(-425,-229.4359130859375) " stroke="null" id="cp42">
     <polygon stroke="null" id="svg_128" points="66,5 66,231 426,231 426,5 "/>
    </clipPath>
    <polyline stroke="rgb(0%,0%,0%)" id="svg_129" points="75.31198477745056,143.7578128779569 77.75878294105314,143.7578128779569 " stroke-width="0.2px" fill="none"/>
   </g>
   <g stroke="null" id="svg_130" clip-path="url(#cp43)">
    <clipPath transform="translate(425,229.4359130859375) scale(1.019498586654663,1.0088331699371338) translate(-425,-229.4359130859375) " stroke="null" id="cp43">
     <polygon stroke="null" id="svg_131" points="66,5 66,231 426,231 426,5 "/>
    </clipPath>
    <polyline stroke="rgb(0%,0%,0%)" id="svg_132" points="75.31198477745056,133.3204319212564 79.38997912406921,133.3204319212564 " stroke-width="0.2px" fill="none"/>
   </g>
   <g stroke="null" id="svg_133" clip-path="url(#cp44)" transform="matrix(1.019498586654663,0,0,1.0088331699371338,59.00000739097595,128.27580547519136) ">
    <clipPath stroke="null" id="cp44">
     <polygon stroke="null" id="svg_134" points="0,-1.16155 0,11.8385 14,11.8385 14,-1.16155 "/>
    </clipPath>
    <text stroke="null" id="svg_135" fill="rgb(0%,0%,0%)" font-size="10px" font-family="Times" y="7" x="0">0.4</text>
   </g>
   <g stroke="null" id="svg_136" clip-path="url(#cp45)">
    <clipPath transform="translate(425,229.4359130859375) scale(1.019498586654663,1.0088331699371338) translate(-425,-229.4359130859375) " stroke="null" id="cp45">
     <polygon stroke="null" id="svg_137" points="66,5 66,231 426,231 426,5 "/>
    </clipPath>
    <polyline stroke="rgb(0%,0%,0%)" id="svg_138" points="75.31198477745056,122.88203498876828 77.75878294105314,122.88203498876828 " stroke-width="0.2px" fill="none"/>
   </g>
   <g stroke="null" id="svg_139" clip-path="url(#cp46)">
    <clipPath transform="translate(425,229.4359130859375) scale(1.019498586654663,1.0088331699371338) translate(-425,-229.4359130859375) " stroke="null" id="cp46">
     <polygon stroke="null" id="svg_140" points="66,5 66,231 426,231 426,5 "/>
    </clipPath>
    <polyline stroke="rgb(0%,0%,0%)" id="svg_141" points="75.31198477745056,112.44363805628018 77.75878294105314,112.44363805628018 " stroke-width="0.2px" fill="none"/>
   </g>
   <g stroke="null" id="svg_142" clip-path="url(#cp47)">
    <clipPath transform="translate(425,229.4359130859375) scale(1.019498586654663,1.0088331699371338) translate(-425,-229.4359130859375) " stroke="null" id="cp47">
     <polygon stroke="null" id="svg_143" points="66,5 66,231 426,231 426,5 "/>
    </clipPath>
    <polyline stroke="rgb(0%,0%,0%)" id="svg_144" points="75.31198477745056,102.00524112379208 77.75878294105314,102.00524112379208 " stroke-width="0.2px" fill="none"/>
   </g>
   <g stroke="null" id="svg_145" clip-path="url(#cp48)">
    <clipPath transform="translate(425,229.4359130859375) scale(1.019498586654663,1.0088331699371338) translate(-425,-229.4359130859375) " stroke="null" id="cp48">
     <polygon stroke="null" id="svg_146" points="66,5 66,231 426,231 426,5 "/>
    </clipPath>
    <polyline stroke="rgb(0%,0%,0%)" id="svg_147" points="75.31198477745056,91.56724442419 79.38997912406921,91.56724442419 " stroke-width="0.2px" fill="none"/>
   </g>
   <g stroke="null" id="svg_148" clip-path="url(#cp49)" transform="matrix(1.019498586654663,0,0,1.0088331699371338,59.00000739097595,86.52304346336629) ">
    <clipPath stroke="null" id="cp49">
     <polygon stroke="null" id="svg_149" points="0,-1.77436 0,11.2256 14,11.2256 14,-1.77436 "/>
    </clipPath>
    <text stroke="null" id="svg_150" fill="rgb(0%,0%,0%)" font-size="10px" font-family="Times" y="7" x="0">0.6</text>
   </g>
   <g stroke="null" id="svg_151" clip-path="url(#cp50)">
    <clipPath transform="translate(425,229.4359130859375) scale(1.019498586654663,1.0088331699371338) translate(-425,-229.4359130859375) " stroke="null" id="cp50">
     <polygon stroke="null" id="svg_152" points="66,5 66,231 426,231 426,5 "/>
    </clipPath>
    <polyline stroke="rgb(0%,0%,0%)" id="svg_153" points="75.31198477745056,81.1290476081449 77.75878294105314,81.1290476081449 " stroke-width="0.2px" fill="none"/>
   </g>
   <g stroke="null" id="svg_154" clip-path="url(#cp51)">
    <clipPath transform="translate(425,229.4359130859375) scale(1.019498586654663,1.0088331699371338) translate(-425,-229.4359130859375) " stroke="null" id="cp51">
     <polygon stroke="null" id="svg_155" points="66,5 66,231 426,231 426,5 "/>
    </clipPath>
    <polyline stroke="rgb(0%,0%,0%)" id="svg_156" points="75.31198477745056,70.69085848888608 77.75878294105314,70.69085848888608 " stroke-width="0.2px" fill="none"/>
   </g>
   <g stroke="null" id="svg_157" clip-path="url(#cp52)">
    <clipPath transform="translate(425,229.4359130859375) scale(1.019498586654663,1.0088331699371338) translate(-425,-229.4359130859375) " stroke="null" id="cp52">
     <polygon stroke="null" id="svg_158" points="66,5 66,231 426,231 426,5 "/>
    </clipPath>
    <polyline stroke="rgb(0%,0%,0%)" id="svg_159" points="75.31198477745056,60.252661672840986 77.75878294105314,60.252661672840986 " stroke-width="0.2px" fill="none"/>
   </g>
   <g stroke="null" id="svg_160" clip-path="url(#cp53)">
    <clipPath transform="translate(425,229.4359130859375) scale(1.019498586654663,1.0088331699371338) translate(-425,-229.4359130859375) " stroke="null" id="cp53">
     <polygon stroke="null" id="svg_161" points="66,5 66,231 426,231 426,5 "/>
    </clipPath>
    <polyline stroke="rgb(0%,0%,0%)" id="svg_162" points="75.31198477745056,49.814464856795894 79.38997912406921,49.814464856795894 " stroke-width="0.2px" fill="none"/>
   </g>
   <g stroke="null" id="svg_163" clip-path="url(#cp54)" transform="matrix(1.019498586654663,0,0,1.0088331699371338,59.00000739097595,44.770281451541194) ">
    <clipPath stroke="null" id="cp54">
     <polygon stroke="null" id="svg_164" points="0,-1.38718 0,11.6128 14,11.6128 14,-1.38718 "/>
    </clipPath>
    <text stroke="null" id="svg_165" fill="rgb(0%,0%,0%)" font-size="10px" font-family="Times" y="7" x="0">0.8</text>
   </g>
   <g stroke="null" id="svg_166" clip-path="url(#cp55)">
    <clipPath transform="translate(425,229.4359130859375) scale(1.019498586654663,1.0088331699371338) translate(-425,-229.4359130859375) " stroke="null" id="cp55">
     <polygon stroke="null" id="svg_167" points="66,5 66,231 426,231 426,5 "/>
    </clipPath>
    <polyline stroke="rgb(0%,0%,0%)" id="svg_168" points="75.31198477745056,39.376271889143936 77.75878294105314,39.376271889143936 " stroke-width="0.2px" fill="none"/>
   </g>
   <g stroke="null" id="svg_169" clip-path="url(#cp56)">
    <clipPath transform="translate(425,229.4359130859375) scale(1.019498586654663,1.0088331699371338) translate(-425,-229.4359130859375) " stroke="null" id="cp56">
     <polygon stroke="null" id="svg_170" points="66,5 66,231 426,231 426,5 "/>
    </clipPath>
    <polyline stroke="rgb(0%,0%,0%)" id="svg_171" points="75.31198477745056,28.938075073098844 77.75878294105314,28.938075073098844 " stroke-width="0.2px" fill="none"/>
   </g>
   <g stroke="null" id="svg_172" clip-path="url(#cp57)">
    <clipPath transform="translate(425,229.4359130859375) scale(1.019498586654663,1.0088331699371338) translate(-425,-229.4359130859375) " stroke="null" id="cp57">
     <polygon stroke="null" id="svg_173" points="66,5 66,231 426,231 426,5 "/>
    </clipPath>
    <polyline stroke="rgb(0%,0%,0%)" id="svg_174" points="75.31198477745056,18.49988018125032 77.75878294105314,18.49988018125032 " stroke-width="0.2px" fill="none"/>
   </g>
   <g stroke="null" id="svg_175" clip-path="url(#cp58)">
    <clipPath transform="translate(425,229.4359130859375) scale(1.019498586654663,1.0088331699371338) translate(-425,-229.4359130859375) " stroke="null" id="cp58">
     <polygon stroke="null" id="svg_176" points="66,5 66,231 426,231 426,5 "/>
    </clipPath>
    <polyline stroke="rgb(0%,0%,0%)" id="svg_177" points="75.31198477745056,8.061685289401794 79.38997912406921,8.061685289401794 " stroke-width="0.2px" fill="none"/>
   </g>
   <g stroke="null" id="svg_178" clip-path="url(#cp59)" transform="matrix(1.019498586654663,0,0,1.0088331699371338,59.00000739097595,3.017519439716125) ">
    <clipPath stroke="null" id="cp59">
     <polygon stroke="null" id="svg_179" points="0,-2.84217e-14 0,12 14,12 14,-2.84217e-14 "/>
    </clipPath>
    <text stroke="null" id="svg_180" fill="rgb(0%,0%,0%)" font-size="10px" font-family="Times" y="7" x="0">1.0</text>
   </g>
   <g stroke="null" id="svg_181" clip-path="url(#cp60)">
    <clipPath transform="translate(425,229.4359130859375) scale(1.019498586654663,1.0088331699371338) translate(-425,-229.4359130859375) " stroke="null" id="cp60">
     <polygon stroke="null" id="svg_182" points="66,5 66,231 426,231 426,5 "/>
    </clipPath>
    <polyline stroke="rgb(0%,0%,0%)" id="svg_183" points="75.31198477745056,221.17465990483106 75.31198477745056,3.7126561348080713 " stroke-width="0.2px" fill="none"/>
   </g>
  </g>
 </g>
</svg>
